<svg width="20" height="20" viewBox="0 0 20 20" fill="none" xmlns="http://www.w3.org/2000/svg">
<path d="M17.5001 5.60833C17.4834 5.60833 17.4584 5.60833 17.4334 5.60833C13.0251 5.16666 8.62505 4.99999 4.26672 5.44166L2.56672 5.60833C2.21672 5.64166 1.90839 5.39166 1.87505 5.04166C1.84172 4.69166 2.09172 4.39166 2.43339 4.35833L4.13339 4.19166C8.56672 3.74166 13.0584 3.91666 17.5584 4.35833C17.9001 4.39166 18.1501 4.69999 18.1167 5.04166C18.0917 5.36666 17.8167 5.60833 17.5001 5.60833Z" fill="white"/>
<path d="M7.08363 4.76666C7.05029 4.76666 7.01696 4.76666 6.97529 4.75832C6.64196 4.69999 6.40863 4.37499 6.46696 4.04166L6.65029 2.94999C6.78363 2.14999 6.96696 1.04166 8.90863 1.04166H11.092C13.042 1.04166 13.2253 2.19166 13.3503 2.95832L13.5336 4.04166C13.592 4.38332 13.3586 4.70832 13.0253 4.75832C12.6836 4.81666 12.3586 4.58332 12.3086 4.24999L12.1253 3.16666C12.0086 2.44166 11.9836 2.29999 11.1003 2.29999H8.91696C8.03363 2.29999 8.01696 2.41666 7.89196 3.15832L7.70029 4.24166C7.65029 4.54999 7.38363 4.76666 7.08363 4.76666Z" fill="white"/>
<path d="M12.675 18.9583H7.325C4.41666 18.9583 4.3 17.35 4.20833 16.05L3.66666 7.65833C3.64166 7.31666 3.90833 7.01666 4.25 6.99166C4.6 6.97499 4.89166 7.23333 4.91666 7.57499L5.45833 15.9667C5.55 17.2333 5.58333 17.7083 7.325 17.7083H12.675C14.425 17.7083 14.4583 17.2333 14.5417 15.9667L15.0833 7.57499C15.1083 7.23333 15.4083 6.97499 15.75 6.99166C16.0917 7.01666 16.3583 7.30833 16.3333 7.65833L15.7917 16.05C15.7 17.35 15.5833 18.9583 12.675 18.9583Z" fill="white"/>
<path d="M11.3834 14.375H8.6084C8.26673 14.375 7.9834 14.0917 7.9834 13.75C7.9834 13.4083 8.26673 13.125 8.6084 13.125H11.3834C11.7251 13.125 12.0084 13.4083 12.0084 13.75C12.0084 14.0917 11.7251 14.375 11.3834 14.375Z" fill="white"/>
<path d="M12.0837 11.0417H7.91699C7.57533 11.0417 7.29199 10.7583 7.29199 10.4167C7.29199 10.075 7.57533 9.79166 7.91699 9.79166H12.0837C12.4253 9.79166 12.7087 10.075 12.7087 10.4167C12.7087 10.7583 12.4253 11.0417 12.0837 11.0417Z" fill="white"/>
</svg>
