<svg width="16" height="16" viewBox="0 0 16 16" fill="none" xmlns="http://www.w3.org/2000/svg">
<path d="M7.59967 15.1667H5.06634C2.13967 15.1667 0.833008 13.86 0.833008 10.9333V8.4C0.833008 5.47333 2.13967 4.16666 5.06634 4.16666H7.06634C7.33967 4.16666 7.56634 4.39333 7.56634 4.66666C7.56634 4.94 7.33967 5.16666 7.06634 5.16666H5.06634C2.67967 5.16666 1.83301 6.01333 1.83301 8.4V10.9333C1.83301 13.32 2.67967 14.1667 5.06634 14.1667H7.59967C9.98634 14.1667 10.833 13.32 10.833 10.9333V8.93333C10.833 8.66 11.0597 8.43333 11.333 8.43333C11.6063 8.43333 11.833 8.66 11.833 8.93333V10.9333C11.833 13.86 10.5263 15.1667 7.59967 15.1667Z" fill="white"/>
<path d="M11.3331 9.43333H9.19974C7.32641 9.43333 6.56641 8.67333 6.56641 6.8V4.66666C6.56641 4.46666 6.68641 4.28 6.87307 4.20666C7.05974 4.12666 7.27307 4.17333 7.41974 4.31333L11.6864 8.58C11.8264 8.72 11.8731 8.94 11.7931 9.12666C11.7197 9.31333 11.5331 9.43333 11.3331 9.43333ZM7.56641 5.87333V6.8C7.56641 8.12666 7.87307 8.43333 9.19974 8.43333H10.1264L7.56641 5.87333Z" fill="white"/>
<path d="M10.4001 1.83334H7.7334C7.46007 1.83334 7.2334 1.60667 7.2334 1.33334C7.2334 1.06 7.46007 0.833336 7.7334 0.833336H10.4001C10.6734 0.833336 10.9001 1.06 10.9001 1.33334C10.9001 1.60667 10.6734 1.83334 10.4001 1.83334Z" fill="white"/>
<path d="M4.66699 3.83334C4.39366 3.83334 4.16699 3.60667 4.16699 3.33334C4.16699 1.95334 5.28699 0.833336 6.66699 0.833336H8.41366C8.68699 0.833336 8.91366 1.06 8.91366 1.33334C8.91366 1.60667 8.68699 1.83334 8.41366 1.83334H6.66699C5.84033 1.83334 5.16699 2.50667 5.16699 3.33334C5.16699 3.60667 4.94033 3.83334 4.66699 3.83334Z" fill="white"/>
<path d="M12.793 11.8333C12.5196 11.8333 12.293 11.6067 12.293 11.3333C12.293 11.06 12.5196 10.8333 12.793 10.8333C13.553 10.8333 14.1663 10.2133 14.1663 9.46V5.33334C14.1663 5.06 14.393 4.83334 14.6663 4.83334C14.9396 4.83334 15.1663 5.06 15.1663 5.33334V9.46C15.1663 10.7667 14.0996 11.8333 12.793 11.8333Z" fill="white"/>
<path d="M14.667 5.83334H12.667C10.8937 5.83334 10.167 5.10667 10.167 3.33334V1.33334C10.167 1.13334 10.287 0.946669 10.4737 0.873336C10.6603 0.793336 10.8737 0.840003 11.0203 0.980003L15.0203 4.98C15.1603 5.12 15.207 5.34 15.127 5.52667C15.0537 5.71334 14.867 5.83334 14.667 5.83334ZM11.167 2.54V3.33334C11.167 4.55334 11.447 4.83334 12.667 4.83334H13.4603L11.167 2.54Z" fill="white"/>
</svg>
