<svg width="18" height="18" viewBox="0 0 18 18" fill="none" xmlns="http://www.w3.org/2000/svg">
<path d="M9.16588 17.9583C5.79921 17.9583 2.76589 16.1 1.21589 13.1083C1.19089 13.0833 1.17421 13.05 1.15755 13.0167C0.524214 11.75 0.199219 10.4 0.199219 9C0.199219 7.6 0.524214 6.24999 1.15755 4.98333C2.69088 1.93332 5.75755 0.0416641 9.15755 0.0416641C11.4409 0.0416641 13.5159 0.849987 15.1575 2.37499C15.2825 2.49165 15.3575 2.64999 15.3575 2.82499C15.3575 2.99999 15.2909 3.15834 15.1659 3.28334L12.8159 5.58333C12.5742 5.81666 12.1992 5.825 11.9492 5.59167C11.4242 5.1 10.5159 4.51666 9.15755 4.51666C7.44089 4.51666 5.86588 5.55 5.15755 7.15834C5.09922 7.29167 5.04921 7.41666 4.99921 7.55832C4.84088 8.04166 4.76588 8.53334 4.76588 9.00834C4.76588 9.48334 4.84921 9.95833 4.99921 10.4333C4.99921 10.4417 5.00755 10.45 5.00755 10.4667C5.60755 12.2833 7.27422 13.5 9.15755 13.5C10.1492 13.5 10.9992 13.2583 11.6909 12.775C12.3242 12.3333 12.7242 11.7417 12.9409 11.2083H9.16588C8.82421 11.2083 8.54088 10.925 8.54088 10.5833V7.49167C8.54088 7.15 8.82421 6.86667 9.16588 6.86667H16.9909C17.2825 6.86667 17.5325 7.06666 17.5992 7.34999C17.7325 7.93332 17.7909 8.48334 17.7909 9.19167C17.7909 11.8417 16.8409 14.1833 15.1076 15.7833C13.5659 17.2 11.5075 17.9583 9.16588 17.9583ZM2.23255 12.375C2.25755 12.4083 2.28255 12.45 2.29922 12.4917C3.60755 15.0833 6.24088 16.7083 9.16588 16.7083C11.1909 16.7083 12.9492 16.0667 14.2575 14.8583C15.7325 13.5 16.5409 11.4833 16.5409 9.18333C16.5409 8.76667 16.5242 8.43332 16.4742 8.10833H9.79088V9.95001H13.7575C13.9325 9.95001 14.1075 10.025 14.2242 10.1583C14.3409 10.2917 14.3992 10.475 14.3742 10.65C14.2659 11.5833 13.6825 12.9 12.4075 13.7917C11.5075 14.4167 10.4159 14.7417 9.15755 14.7417C6.74922 14.7417 4.61589 13.1917 3.83255 10.875C3.83255 10.8667 3.82422 10.8583 3.82422 10.85C3.61588 10.2417 3.51588 9.62501 3.51588 9.00834C3.51588 8.40001 3.61588 7.78332 3.81588 7.16665C3.87422 6.98332 3.94088 6.81666 4.01588 6.64999C4.93255 4.59166 6.94922 3.26666 9.15755 3.26666C10.5826 3.26666 11.6325 3.76667 12.3492 4.29167L13.8075 2.86668C12.4909 1.83334 10.8909 1.29166 9.15755 1.29166C6.23255 1.29166 3.59088 2.91667 2.27422 5.54167C1.73255 6.63334 1.44922 7.8 1.44922 9C1.45755 10.175 1.71588 11.3083 2.23255 12.375Z" fill="#000A1F"/>
</svg>
