<svg width="20" height="20" viewBox="0 0 20 20" fill="none" xmlns="http://www.w3.org/2000/svg">
<path d="M10.1659 18.9583C6.79921 18.9583 3.76589 17.1 2.21589 14.1083C2.19089 14.0833 2.17421 14.05 2.15755 14.0167C1.52421 12.75 1.19922 11.4 1.19922 10C1.19922 8.6 1.52421 7.24999 2.15755 5.98333C3.69088 2.93332 6.75755 1.04166 10.1576 1.04166C12.4409 1.04166 14.5159 1.84999 16.1575 3.37499C16.2825 3.49165 16.3575 3.64999 16.3575 3.82499C16.3575 3.99999 16.2909 4.15834 16.1659 4.28334L13.8159 6.58333C13.5742 6.81666 13.1992 6.825 12.9492 6.59167C12.4242 6.1 11.5159 5.51666 10.1576 5.51666C8.44089 5.51666 6.86588 6.55 6.15755 8.15834C6.09922 8.29167 6.04921 8.41666 5.99921 8.55832C5.84088 9.04166 5.76588 9.53334 5.76588 10.0083C5.76588 10.4833 5.84921 10.9583 5.99921 11.4333C5.99921 11.4417 6.00755 11.45 6.00755 11.4667C6.60755 13.2833 8.27422 14.5 10.1576 14.5C11.1492 14.5 11.9992 14.2583 12.6909 13.775C13.3242 13.3333 13.7242 12.7417 13.9409 12.2083H10.1659C9.82421 12.2083 9.54088 11.925 9.54088 11.5833V8.49167C9.54088 8.15 9.82421 7.86667 10.1659 7.86667H17.9909C18.2825 7.86667 18.5325 8.06666 18.5992 8.34999C18.7325 8.93332 18.7909 9.48334 18.7909 10.1917C18.7909 12.8417 17.8409 15.1833 16.1076 16.7833C14.5659 18.2 12.5075 18.9583 10.1659 18.9583ZM3.23255 13.375C3.25755 13.4083 3.28255 13.45 3.29922 13.4917C4.60755 16.0833 7.24088 17.7083 10.1659 17.7083C12.1909 17.7083 13.9492 17.0667 15.2575 15.8583C16.7325 14.5 17.5409 12.4833 17.5409 10.1833C17.5409 9.76667 17.5242 9.43332 17.4742 9.10833H10.7909V10.95H14.7575C14.9325 10.95 15.1075 11.025 15.2242 11.1583C15.3409 11.2917 15.3992 11.475 15.3742 11.65C15.2659 12.5833 14.6825 13.9 13.4075 14.7917C12.5075 15.4167 11.4159 15.7417 10.1576 15.7417C7.74922 15.7417 5.61589 14.1917 4.83255 11.875C4.83255 11.8667 4.82422 11.8583 4.82422 11.85C4.61588 11.2417 4.51588 10.625 4.51588 10.0083C4.51588 9.40001 4.61588 8.78332 4.81588 8.16665C4.87422 7.98332 4.94088 7.81666 5.01588 7.64999C5.93255 5.59166 7.94922 4.26666 10.1576 4.26666C11.5826 4.26666 12.6325 4.76667 13.3492 5.29167L14.8075 3.86668C13.4909 2.83334 11.8909 2.29166 10.1576 2.29166C7.23255 2.29166 4.59088 3.91667 3.27422 6.54167C2.73255 7.63334 2.44922 8.8 2.44922 10C2.45755 11.175 2.71588 12.3083 3.23255 13.375Z" fill="white"/>
</svg>
