<svg width="20" height="20" viewBox="0 0 20 20" fill="none" xmlns="http://www.w3.org/2000/svg">
<path d="M10.1659 18.9584C6.79921 18.9584 3.76589 17.1001 2.21589 14.1084C2.19089 14.0834 2.17421 14.0501 2.15755 14.0168C1.52421 12.7501 1.19922 11.4001 1.19922 10.0001C1.19922 8.60008 1.52421 7.25008 2.15755 5.98341C3.69088 2.93341 6.75755 1.04175 10.1576 1.04175C12.4409 1.04175 14.5159 1.85007 16.1575 3.37507C16.2825 3.49174 16.3575 3.65008 16.3575 3.82508C16.3575 4.00008 16.2909 4.15843 16.1659 4.28343L13.8159 6.58341C13.5742 6.81674 13.1992 6.82508 12.9492 6.59175C12.4242 6.10008 11.5159 5.51674 10.1576 5.51674C8.44089 5.51674 6.86588 6.55009 6.15755 8.15842C6.09922 8.29176 6.04921 8.41674 5.99921 8.55841C5.84088 9.04174 5.76588 9.53342 5.76588 10.0084C5.76588 10.4834 5.84921 10.9584 5.99921 11.4334C5.99921 11.4417 6.00755 11.4501 6.00755 11.4668C6.60755 13.2834 8.27422 14.5001 10.1576 14.5001C11.1492 14.5001 11.9992 14.2584 12.6909 13.7751C13.3242 13.3334 13.7242 12.7417 13.9409 12.2084H10.1659C9.82421 12.2084 9.54088 11.9251 9.54088 11.5834V8.49175C9.54088 8.15008 9.82421 7.86675 10.1659 7.86675H17.9909C18.2825 7.86675 18.5325 8.06674 18.5992 8.35007C18.7325 8.93341 18.7909 9.48342 18.7909 10.1918C18.7909 12.8418 17.8409 15.1834 16.1076 16.7834C14.5659 18.2001 12.5075 18.9584 10.1659 18.9584ZM3.23255 13.3751C3.25755 13.4084 3.28255 13.4501 3.29922 13.4918C4.60755 16.0834 7.24088 17.7084 10.1659 17.7084C12.1909 17.7084 13.9492 17.0667 15.2575 15.8584C16.7325 14.5001 17.5409 12.4834 17.5409 10.1834C17.5409 9.76675 17.5242 9.43341 17.4742 9.10841H10.7909V10.9501H14.7575C14.9325 10.9501 15.1075 11.0251 15.2242 11.1584C15.3409 11.2918 15.3992 11.4751 15.3742 11.6501C15.2659 12.5834 14.6825 13.9001 13.4075 14.7917C12.5075 15.4167 11.4159 15.7418 10.1576 15.7418C7.74922 15.7418 5.61589 14.1917 4.83255 11.8751C4.83255 11.8667 4.82422 11.8584 4.82422 11.8501C4.61588 11.2417 4.51588 10.6251 4.51588 10.0084C4.51588 9.40009 4.61588 8.7834 4.81588 8.16674C4.87422 7.9834 4.94088 7.81674 5.01588 7.65008C5.93255 5.59174 7.94922 4.26674 10.1576 4.26674C11.5826 4.26674 12.6325 4.76675 13.3492 5.29175L14.8075 3.86676C13.4909 2.83343 11.8909 2.29175 10.1576 2.29175C7.23255 2.29175 4.59088 3.91675 3.27422 6.54175C2.73255 7.63342 2.44922 8.80008 2.44922 10.0001C2.45755 11.1751 2.71588 12.3084 3.23255 13.3751Z" fill="#000A1F"/>
</svg>
