<svg width="20" height="20" viewBox="0 0 20 20" fill="none" xmlns="http://www.w3.org/2000/svg">
<path d="M16.4912 12.4417C14.7746 14.15 12.3162 14.675 10.1579 14L6.23289 17.9167C5.94955 18.2083 5.39122 18.3833 4.99122 18.325L3.17455 18.075C2.57455 17.9917 2.01622 17.425 1.92455 16.825L1.67455 15.0083C1.61622 14.6083 1.80789 14.05 2.08289 13.7667L5.99955 9.85C5.33289 7.68333 5.84955 5.225 7.56622 3.51666C10.0246 1.05833 14.0162 1.05833 16.4829 3.51666C18.9496 5.975 18.9496 9.98333 16.4912 12.4417Z" stroke="white" stroke-width="1.5" stroke-miterlimit="10" stroke-linecap="round" stroke-linejoin="round"/>
<path d="M5.74219 14.575L7.65885 16.4917" stroke="white" stroke-width="1.5" stroke-miterlimit="10" stroke-linecap="round" stroke-linejoin="round"/>
<path d="M12.084 9.16667C12.7743 9.16667 13.334 8.60703 13.334 7.91667C13.334 7.22632 12.7743 6.66667 12.084 6.66667C11.3936 6.66667 10.834 7.22632 10.834 7.91667C10.834 8.60703 11.3936 9.16667 12.084 9.16667Z" stroke="white" stroke-width="1.5" stroke-linecap="round" stroke-linejoin="round"/>
</svg>
