<svg width="20" height="20" viewBox="0 0 20 20" fill="none" xmlns="http://www.w3.org/2000/svg">
<path d="M12.4993 18.9583H7.49935C2.97435 18.9583 1.04102 17.025 1.04102 12.5V7.50001C1.04102 2.97501 2.97435 1.04167 7.49935 1.04167H12.4993C17.0243 1.04167 18.9577 2.97501 18.9577 7.50001V12.5C18.9577 17.025 17.0243 18.9583 12.4993 18.9583ZM7.49935 2.29167C3.65768 2.29167 2.29102 3.65834 2.29102 7.50001V12.5C2.29102 16.3417 3.65768 17.7083 7.49935 17.7083H12.4993C16.341 17.7083 17.7077 16.3417 17.7077 12.5V7.50001C17.7077 3.65834 16.341 2.29167 12.4993 2.29167H7.49935Z" fill="white"/>
<path d="M9.99987 12.7167C9.84154 12.7167 9.6832 12.6583 9.5582 12.5333L7.0582 10.0333C6.81654 9.79168 6.81654 9.39168 7.0582 9.15002C7.29987 8.90835 7.69987 8.90835 7.94153 9.15002L9.99987 11.2083L12.0582 9.15002C12.2999 8.90835 12.6999 8.90835 12.9415 9.15002C13.1832 9.39168 13.1832 9.79168 12.9415 10.0333L10.4415 12.5333C10.3165 12.6583 10.1582 12.7167 9.99987 12.7167Z" fill="white"/>
<path d="M10 12.7167C9.65833 12.7167 9.375 12.4333 9.375 12.0917V5.425C9.375 5.08334 9.65833 4.8 10 4.8C10.3417 4.8 10.625 5.08334 10.625 5.425V12.0917C10.625 12.4417 10.3417 12.7167 10 12.7167Z" fill="white"/>
<path d="M10.0007 15.1917C8.24235 15.1917 6.47569 14.9084 4.80069 14.35C4.47569 14.2417 4.30069 13.8834 4.40902 13.5584C4.51735 13.2334 4.86735 13.05 5.20068 13.1667C8.30068 14.2 11.709 14.2 14.809 13.1667C15.134 13.0584 15.4924 13.2334 15.6007 13.5584C15.709 13.8834 15.534 14.2417 15.209 14.35C13.5257 14.9167 11.759 15.1917 10.0007 15.1917Z" fill="white"/>
</svg>
