<svg width="18" height="14" viewBox="0 0 18 14" fill="none" xmlns="http://www.w3.org/2000/svg">
<path d="M15.666 0.333252H2.33268C1.41352 0.333252 0.666016 1.08075 0.666016 1.99992V11.9999C0.666016 12.9191 1.41352 13.6666 2.33268 13.6666H15.666C16.5852 13.6666 17.3327 12.9191 17.3327 11.9999V1.99992C17.3327 1.08075 16.5852 0.333252 15.666 0.333252ZM3.16602 4.08325C3.16602 3.97274 3.20991 3.86676 3.28805 3.78862C3.36619 3.71048 3.47218 3.66659 3.58268 3.66659H6.08268C6.19319 3.66659 6.29917 3.71048 6.37731 3.78862C6.45545 3.86676 6.49935 3.97274 6.49935 4.08325V5.74992C6.49935 5.86043 6.45545 5.96641 6.37731 6.04455C6.29917 6.12269 6.19319 6.16658 6.08268 6.16658H3.58268C3.47218 6.16658 3.36619 6.12269 3.28805 6.04455C3.20991 5.96641 3.16602 5.86043 3.16602 5.74992V4.08325ZM8.16602 10.3333H3.16602V8.66658H8.16602V10.3333ZM14.8327 10.3333H9.83268V8.66658H14.8327V10.3333Z" fill="white"/>
</svg>
