<svg width="24" height="24" viewBox="0 0 24 24" fill="none" xmlns="http://www.w3.org/2000/svg">
<path d="M19.3633 11.0352C19.3633 11.0352 19.6602 12.4883 19.7266 12.793H18.4219C18.5508 12.4453 19.0469 11.0938 19.0469 11.0938C19.0391 11.1055 19.1758 10.7383 19.2539 10.5117L19.3633 11.0352ZM24.5 1.125V22.875C24.5 23.9102 22.6602 24.75 21.625 24.75H2.875C1.83984 24.75 -1 23.9102 -1 22.875V1.125C-1 0.0898438 1.83984 -0.75 2.875 -0.75H21.625C22.6602 -0.75 24.5 0.0898438 24.5 1.125ZM6.95703 14.9375L9.42578 8.875H7.76562L6.23047 13.0156L6.0625 12.1758L5.51562 9.38672C5.42578 9 5.14844 8.89062 4.80469 8.875H2.27734L2.25 8.99609C2.86719 9.15234 3.41797 9.37891 3.89844 9.66406L5.29688 14.9375H6.95703ZM10.6445 14.9453L11.6289 8.875H10.0586L9.07812 14.9453H10.6445ZM16.1094 12.9609C16.1172 12.2695 15.6953 11.7422 14.793 11.3086C14.2422 11.0312 13.9062 10.8438 13.9062 10.5586C13.9141 10.3008 14.1914 10.0352 14.8086 10.0352C15.3203 10.0234 15.6953 10.1445 15.9766 10.2656L16.1172 10.332L16.332 9.01953C16.0234 8.89844 15.5312 8.76172 14.9258 8.76172C13.375 8.76172 12.2852 9.58984 12.2773 10.7695C12.2656 11.6406 13.0586 12.125 13.6523 12.418C14.2578 12.7148 14.4648 12.9102 14.4648 13.1719C14.457 13.5781 13.9727 13.7656 13.5234 13.7656C12.8984 13.7656 12.5625 13.668 12.0508 13.4414L11.8438 13.3438L11.625 14.707C11.9922 14.875 12.6719 15.0234 13.375 15.0312C15.0234 15.0352 16.0977 14.2188 16.1094 12.9609ZM21.625 14.9453L20.3594 8.875H19.1445C18.7695 8.875 18.4844 8.98438 18.3242 9.37891L15.9922 14.9453H17.6406C17.6406 14.9453 17.9102 14.1953 17.9688 14.0352H19.9844C20.0312 14.25 20.1719 14.9453 20.1719 14.9453H21.625Z" fill="#00579F"/>
</svg>
