<svg width="24" height="24" viewBox="0 0 24 24" fill="none" xmlns="http://www.w3.org/2000/svg">
<path fill-rule="evenodd" clip-rule="evenodd" d="M12 21C7.02944 21 3 16.9706 3 12C3 7.02944 7.02944 3 12 3C16.9706 3 21 7.02944 21 12C21 16.9706 16.9706 21 12 21ZM15.2851 11.5784C15.3828 11.6741 15.5066 11.7187 15.6304 11.7187C15.7542 11.7187 15.878 11.6741 15.9758 11.5784L17.644 9.94643C17.833 9.76155 17.833 9.45555 17.644 9.27067L15.9758 7.63866C15.7868 7.45378 15.474 7.45378 15.2851 7.63866C15.0961 7.82353 15.0961 8.12954 15.2851 8.31441L16.1583 9.16867H9.96119C7.89551 9.16867 6.21429 10.8134 6.21429 12.8343C6.21429 14.8552 7.89551 16.5 9.96119 16.5H15.1743C15.448 16.5 15.663 16.2832 15.663 16.0219C15.663 15.7605 15.4415 15.5437 15.1743 15.5437H9.96119C8.43637 15.5437 7.19174 14.3261 7.19174 12.8343C7.19174 11.3426 8.43637 10.1249 9.96119 10.1249H16.0801L15.2851 10.9027C15.0961 11.0876 15.0961 11.3936 15.2851 11.5784Z" fill="white"/>
</svg>
