<svg width="161" height="32" viewBox="0 0 161 32" fill="none" xmlns="http://www.w3.org/2000/svg">
<g clip-path="url(#clip0_6476_3521)">
<path d="M60.0001 31.6H54.8L67.2001 0H72.4001L60.0001 31.6Z" fill="#009DE6"/>
<path d="M35.5708 21.0084H40.8818V3.86554H35.5708V0H45.8564V21.0084H51.1674V24.874H35.5708V21.0084Z" fill="white"/>
<path fill-rule="evenodd" clip-rule="evenodd" d="M4.9748 7.5294H0V31.5966H4.9748V21.7142H5.21008C5.63586 22.7676 6.2521 23.6302 7.05882 24.3026C7.86554 24.9524 8.96358 25.2774 10.3529 25.2774C11.3165 25.2774 12.1905 25.098 12.9748 24.7394C13.7815 24.381 14.465 23.832 15.0252 23.0924C15.6078 22.353 16.056 21.4118 16.3697 20.269C16.7059 19.126 16.874 17.7703 16.874 16.2017C16.874 14.633 16.7059 13.2773 16.3697 12.1344C16.056 10.9916 15.6078 10.0504 15.0252 9.3109C14.465 8.5714 13.7815 8.02238 12.9748 7.66384C12.1905 7.3053 11.3165 7.12604 10.3529 7.12604C8.96358 7.12604 7.86554 7.46216 7.05882 8.13444C6.2521 8.8067 5.63586 9.65824 5.21008 10.6891H4.9748V7.5294ZM10.7899 20.4034C10.1849 21.0756 9.32212 21.4118 8.20168 21.4118C7.32774 21.4118 6.56582 21.1988 5.91596 20.7732C5.28852 20.3474 4.9748 19.6751 4.9748 18.7563V13.647C4.9748 12.7283 5.28852 12.056 5.91596 11.6302C6.56582 11.2045 7.32774 10.9916 8.20168 10.9916C9.32212 10.9916 10.1849 11.3389 10.7899 12.0336C11.395 12.7059 11.6975 13.647 11.6975 14.8571V17.5462C11.6975 18.7563 11.395 19.7087 10.7899 20.4034Z" fill="white"/>
<path fill-rule="evenodd" clip-rule="evenodd" d="M26.5755 25.2774C25.2309 25.2774 24.0207 25.0756 22.9451 24.6722C21.8695 24.2464 20.9507 23.6414 20.1889 22.8572C19.4493 22.0728 18.8779 21.1204 18.4745 20C18.0712 18.8795 17.8695 17.6134 17.8695 16.2017C17.8695 14.7899 18.0712 13.5238 18.4745 12.4033C18.8779 11.2829 19.4493 10.3305 20.1889 9.5462C20.9507 8.76188 21.8695 8.16804 22.9451 7.76468C24.0207 7.33892 25.2309 7.12604 26.5755 7.12604C27.9199 7.12604 29.1301 7.33892 30.2057 7.76468C31.2813 8.16804 32.1889 8.76188 32.9283 9.5462C33.6903 10.3305 34.2729 11.2829 34.6763 12.4033C35.0797 13.5238 35.2813 14.7899 35.2813 16.2017C35.2813 17.6134 35.0797 18.8795 34.6763 20C34.2729 21.1204 33.6903 22.0728 32.9283 22.8572C32.1889 23.6414 31.2813 24.2464 30.2057 24.6722C29.1301 25.0756 27.9199 25.2774 26.5755 25.2774ZM26.5755 21.5798C27.6959 21.5798 28.5699 21.2324 29.1973 20.5378C29.8247 19.8431 30.1385 18.8571 30.1385 17.5798V14.8235C30.1385 13.5462 29.8247 12.5602 29.1973 11.8655C28.5699 11.1708 27.6959 10.8235 26.5755 10.8235C25.4549 10.8235 24.5811 11.1708 23.9535 11.8655C23.3261 12.5602 23.0123 13.5462 23.0123 14.8235V17.5798C23.0123 18.8571 23.3261 19.8431 23.9535 20.5378C24.5811 21.2324 25.4549 21.5798 26.5755 21.5798Z" fill="white"/>
<path d="M59.8261 18.792L57.5919 24.4854L50.717 7.52942H56.0615L58.5825 14.8235L59.8261 18.792Z" fill="white"/>
<path d="M144.238 0H149.222V10.6891H149.424C149.626 10.1961 149.873 9.7367 150.165 9.31092C150.456 8.88516 150.804 8.5154 151.208 8.20168C151.635 7.86554 152.118 7.60784 152.656 7.42858C153.218 7.2269 153.846 7.12606 154.542 7.12606C155.373 7.12606 156.136 7.2717 156.832 7.56302C157.528 7.83194 158.123 8.2465 158.617 8.80672C159.111 9.36694 159.492 10.0504 159.762 10.8571C160.054 11.6639 160.2 12.5938 160.2 13.6471V24.874H155.216V14.3193C155.216 12.0784 154.239 10.958 152.286 10.958C151.904 10.958 151.523 11.014 151.141 11.1261C150.782 11.2157 150.456 11.3725 150.165 11.5966C149.873 11.7983 149.637 12.056 149.457 12.3697C149.3 12.6835 149.222 13.0532 149.222 13.479V24.874H144.238V0Z" fill="white"/>
<path fill-rule="evenodd" clip-rule="evenodd" d="M87.6498 26.6218C87.6498 28.4594 86.8752 29.8152 85.3262 30.689C83.777 31.563 81.3412 32 78.0188 32C76.3574 32 74.988 31.8992 73.9104 31.6974C72.8328 31.5182 71.9684 31.2494 71.3174 30.8908C70.6888 30.5322 70.2398 30.1064 69.9704 29.6134C69.7234 29.1204 69.6 28.5826 69.6 28C69.6 27.014 69.8918 26.2634 70.4756 25.748C71.0592 25.255 71.8786 24.874 72.9338 24.605V24.4034C72.193 24.1792 71.598 23.8656 71.149 23.4622C70.7224 23.0364 70.5092 22.4426 70.5092 21.6806C70.5092 20.8292 70.7898 20.2016 71.351 19.7983C71.9348 19.395 72.698 19.0812 73.641 18.8571V18.6555C72.6082 18.1625 71.8 17.4678 71.2164 16.5714C70.6552 15.6751 70.3746 14.5883 70.3746 13.3109C70.3746 12.3025 70.5542 11.4174 70.9134 10.6555C71.2726 9.87115 71.7776 9.22129 72.4286 8.70589C73.1022 8.19049 73.8992 7.79833 74.8196 7.52943C75.74 7.26051 76.7728 7.12607 77.9176 7.12607C79.0178 7.12607 80.0392 7.24931 80.982 7.49581V6.55463C80.982 5.88237 81.2178 5.32213 81.6892 4.87395C82.1608 4.42579 82.8118 4.20169 83.6424 4.20169H86.7068V7.83195H82.5312V8.13447C83.474 8.62747 84.2036 9.31093 84.72 10.1849C85.2588 11.0364 85.5282 12.0785 85.5282 13.3109C85.5282 14.3193 85.3486 15.2045 84.9894 15.9664C84.6302 16.7283 84.1138 17.3782 83.4404 17.916C82.7668 18.4314 81.9586 18.8235 81.0158 19.0924C80.0954 19.3613 79.0626 19.4958 77.9176 19.4958C77.4014 19.4958 76.9074 19.4734 76.436 19.4286C75.9646 19.3613 75.5156 19.2717 75.089 19.1597C74.842 19.2941 74.6288 19.4622 74.4492 19.6639C74.292 19.8655 74.2134 20.1232 74.2134 20.437C74.2134 20.7058 74.2808 20.9188 74.4154 21.0756C74.5502 21.2324 74.7298 21.3558 74.9542 21.4454C75.2012 21.5126 75.4818 21.5574 75.7962 21.5798C76.1104 21.6022 76.436 21.6134 76.7728 21.6134H80.7464C81.9812 21.6134 83.0362 21.7366 83.9118 21.9832C84.7874 22.2296 85.5058 22.577 86.067 23.0252C86.6282 23.4734 87.0324 24 87.2792 24.605C87.5262 25.21 87.6498 25.8824 87.6498 26.6218ZM82.9352 26.9916C82.9352 26.5434 82.7556 26.1848 82.3964 25.916C82.0372 25.6694 81.3526 25.5462 80.3422 25.5462H74.3818C73.9328 25.9272 73.7084 26.3978 73.7084 26.958C73.7084 27.4958 73.9328 27.9328 74.3818 28.269C74.8532 28.6274 75.639 28.8068 76.739 28.8068H79.6688C80.8138 28.8068 81.6444 28.6498 82.1608 28.3362C82.677 28.0224 82.9352 27.5742 82.9352 26.9916ZM77.9176 16.3362C78.928 16.3362 79.6576 16.0897 80.1066 15.5967C80.578 15.1037 80.8138 14.4762 80.8138 13.7143V12.9076C80.8138 12.1457 80.578 11.5182 80.1066 11.0252C79.6576 10.5322 78.928 10.2857 77.9176 10.2857C76.9298 10.2857 76.2114 10.5322 75.7624 11.0252C75.3134 11.5182 75.089 12.1457 75.089 12.9076V13.7143C75.089 14.4762 75.3134 15.1037 75.7624 15.5967C76.2114 16.0897 76.9298 16.3362 77.9176 16.3362Z" fill="white"/>
<path d="M93.0246 21.0084H89.0172V24.874H103.733V21.0084H98.0084V15.8655C98.0084 14.8123 98.3226 13.9272 98.9512 13.2101C99.5798 12.4706 100.512 12.1008 101.746 12.1008H105.451V7.52942H103.8C102.947 7.52942 102.207 7.66386 101.578 7.93278C100.949 8.20168 100.411 8.57142 99.9616 9.04202C99.535 9.4902 99.1758 10.0168 98.884 10.6218C98.6146 11.2045 98.4012 11.8095 98.2442 12.437H98.0084V7.52942H89.0172V11.395H93.0246V21.0084Z" fill="white"/>
<path fill-rule="evenodd" clip-rule="evenodd" d="M118.941 24.1008C119.57 24.6162 120.4 24.874 121.433 24.874H124.295V21.2774H122.376V13.6807C122.376 11.4846 121.703 9.84872 120.356 8.77308C119.031 7.67506 117.179 7.12604 114.799 7.12604C112.846 7.12604 111.241 7.45096 109.984 8.10082C108.749 8.72828 107.84 9.535 107.256 10.521L109.984 12.9412C110.455 12.2913 111.016 11.7647 111.667 11.3613C112.318 10.958 113.172 10.7563 114.227 10.7563C115.372 10.7563 116.18 11.0252 116.651 11.563C117.145 12.0784 117.392 12.8515 117.392 13.8823V14.7563H114.597C112.038 14.7563 110.096 15.1933 108.771 16.0672C107.447 16.9412 106.785 18.2857 106.785 20.1008C106.785 21.7366 107.29 23.014 108.3 23.9328C109.333 24.8292 110.691 25.2774 112.375 25.2774C113.722 25.2774 114.855 24.986 115.776 24.4034C116.719 23.8208 117.347 22.958 117.662 21.8152H117.83C117.942 22.8012 118.313 23.563 118.941 24.1008ZM116.483 21.3782C115.877 21.804 115.136 22.0168 114.26 22.0168C113.475 22.0168 112.846 21.86 112.375 21.5462C111.903 21.2324 111.667 20.7732 111.667 20.168V19.4958C111.667 18.1288 112.689 17.4454 114.732 17.4454H117.392V19.5294C117.392 20.3362 117.089 20.9524 116.483 21.3782Z" fill="white"/>
<path fill-rule="evenodd" clip-rule="evenodd" d="M130.512 7.5294H125.528V31.5966H130.512V21.7142H130.748C131.175 22.7676 131.792 23.6302 132.6 24.3026C133.408 24.9524 134.508 25.2774 135.9 25.2774C136.866 25.2774 137.741 25.098 138.527 24.7394C139.335 24.381 140.02 23.832 140.581 23.0924C141.165 22.353 141.614 21.4118 141.928 20.269C142.265 19.126 142.433 17.7703 142.433 16.2017C142.433 14.633 142.265 13.2773 141.928 12.1344C141.614 10.9916 141.165 10.0504 140.581 9.3109C140.02 8.5714 139.335 8.02238 138.527 7.66384C137.741 7.3053 136.866 7.12604 135.9 7.12604C134.508 7.12604 133.408 7.46216 132.6 8.13444C131.792 8.8067 131.175 9.65824 130.748 10.6891H130.512V7.5294ZM136.338 20.4034C135.732 21.0756 134.868 21.4118 133.745 21.4118C132.87 21.4118 132.106 21.1988 131.455 20.7732C130.827 20.3474 130.512 19.6751 130.512 18.7563V13.647C130.512 12.7283 130.827 12.056 131.455 11.6302C132.106 11.2045 132.87 10.9916 133.745 10.9916C134.868 10.9916 135.732 11.3389 136.338 12.0336C136.944 12.7059 137.247 13.647 137.247 14.8571V17.5462C137.247 18.7563 136.944 19.7087 136.338 20.4034Z" fill="white"/>
</g>
<defs>
<clipPath id="clip0_6476_3521">
<rect width="160.2" height="32" fill="white"/>
</clipPath>
</defs>
</svg>
