<svg width="24" height="24" viewBox="0 0 24 24" fill="none" xmlns="http://www.w3.org/2000/svg">
<path d="M20.7322 6.70275C20.106 6.98025 19.4332 7.16775 18.726 7.2525C19.4557 6.81584 20.0017 6.1286 20.262 5.319C19.5763 5.72624 18.826 6.01289 18.0435 6.1665C17.5172 5.60465 16.8203 5.23224 16.0607 5.1071C15.3011 4.98196 14.5215 5.11109 13.8429 5.47444C13.1642 5.83778 12.6245 6.41502 12.3076 7.11652C11.9906 7.81803 11.9141 8.60456 12.09 9.354C10.7007 9.28424 9.34168 8.92316 8.10102 8.29417C6.86037 7.66519 5.76584 6.78237 4.88846 5.703C4.58846 6.2205 4.41596 6.8205 4.41596 7.4595C4.41562 8.03474 4.55728 8.60118 4.82836 9.10854C5.09945 9.61591 5.49158 10.0485 5.96996 10.368C5.41516 10.3503 4.87261 10.2004 4.38746 9.93075V9.97574C4.3874 10.7826 4.66648 11.5645 5.17734 12.189C5.68821 12.8135 6.39938 13.2419 7.19021 13.4017C6.67554 13.541 6.13596 13.5615 5.61221 13.4617C5.83533 14.156 6.26995 14.763 6.85523 15.1979C7.44051 15.6329 8.14714 15.8739 8.87621 15.8872C7.63858 16.8588 6.11012 17.3858 4.53671 17.3835C4.25799 17.3836 3.97951 17.3673 3.70271 17.3347C5.29981 18.3616 7.15896 18.9066 9.05771 18.9045C15.4852 18.9045 18.999 13.581 18.999 8.964C18.999 8.814 18.9952 8.6625 18.9885 8.5125C19.6719 8.01823 20.2619 7.40617 20.7307 6.705L20.7322 6.70275Z" fill="white"/>
</svg>
